<?xml version="1.0" encoding="UTF-8" standalone="no"?><!DOCTYPE svg PUBLIC "-//W3C//DTD SVG 1.1//EN" "http://www.w3.org/Graphics/SVG/1.1/DTD/svg11.dtd"><svg width="100%" height="100%" viewBox="0 0 190 46" version="1.1" xmlns="http://www.w3.org/2000/svg" xmlns:xlink="http://www.w3.org/1999/xlink" xml:space="preserve" xmlns:serif="http://www.serif.com/" style="fill-rule:evenodd;clip-rule:evenodd;stroke-linejoin:round;stroke-miterlimit:1.41421;"><path d="M11.2,0.2c3.7,0 6.5,0.9 8.3,2.8c0.1,0.1 0.1,0.2 0.2,0.3c0.2,0.3 0.3,0.7 0.3,1c0,0.3 -0.1,0.6 -0.3,0.9c-0.2,0.3 -0.4,0.5 -0.7,0.7c-0.3,0.2 -0.6,0.3 -1,0.3c-0.3,0 -0.6,-0.1 -0.9,-0.3c-0.1,-0.1 -0.3,-0.2 -0.4,-0.3c-1.3,-1.2 -3.1,-1.8 -5.6,-1.8c-4.9,0 -7.4,2.5 -7.4,7.4c0,4.9 2.5,7.4 7.4,7.4c2.5,0 4.3,-0.6 5.5,-1.8c0.1,-0.1 0.2,-0.1 0.4,-0.2c0.3,-0.2 0.6,-0.3 1,-0.3c0.3,0 0.7,0.1 1,0.3c0.3,0.2 0.5,0.4 0.7,0.7c0.2,0.3 0.3,0.6 0.3,0.9c0,0.3 -0.1,0.7 -0.3,1c-0.1,0.1 -0.1,0.2 -0.2,0.4c-1.8,1.8 -4.6,2.8 -8.3,2.8c-7.4,0 -11.1,-3.7 -11.1,-11.1c0,-7.5 3.7,-11.1 11.1,-11.1Z" style="fill:#4a4949;fill-rule:nonzero;"/><path d="M51.4,20.5c0,0.3 -0.1,0.6 -0.2,0.9c-0.2,0.3 -0.4,0.5 -0.7,0.7c-0.3,0.2 -0.6,0.2 -0.9,0.2c-0.3,0 -0.6,-0.1 -0.9,-0.2c-0.3,-0.2 -0.5,-0.4 -0.7,-0.7c-0.2,-0.3 -0.2,-0.6 -0.2,-0.9l0,-9.2c0,-7.4 3.7,-11.1 11.1,-11.1c7.4,0 11.1,3.7 11.1,11.1l0,9.2c0,0.3 -0.1,0.6 -0.2,0.9c-0.2,0.3 -0.4,0.5 -0.7,0.7c-0.3,0.2 -0.6,0.2 -0.9,0.2c-0.3,0 -0.6,-0.1 -0.9,-0.2c-0.3,-0.2 -0.5,-0.4 -0.7,-0.7c-0.2,-0.3 -0.2,-0.6 -0.2,-0.9l0,-9.2c0,-4.9 -2.5,-7.4 -7.4,-7.4c-4.9,0 -7.4,2.5 -7.4,7.4l0,9.2l-0.2,0Z" style="fill:#4a4949;fill-rule:nonzero;"/><path d="M94.6,0.2c0,7.4 -9.5,22.1 -16.9,22.1l-3.7,0l0,-20.3c0,-0.3 0.1,-0.6 0.2,-0.9c0.2,-0.3 0.4,-0.5 0.7,-0.7c0.3,-0.2 0.6,-0.2 0.9,-0.2c0.3,0 0.6,0.1 0.9,0.2c0.3,0.2 0.5,0.4 0.7,0.7c0.2,0.3 0.2,0.6 0.2,0.9l0,16.6c4.9,0 13.2,-13.5 13.2,-18.4l3.8,0Z" style="fill:#4a4949;fill-rule:nonzero;"/><path d="M108.5,-0.05l-24.3,46.1l1.1,0l24.3,-46.1l-1.1,0Z" style="fill:#54b27d;fill-rule:nonzero;"/><path d="M33.9,0.2c-7.4,0 -11.1,3.7 -11.1,11.1l0,33.7l3.7,0l0,-24.8c1.8,1.4 4.3,2.1 7.4,2.1c7.4,0 11.1,-3.7 11.1,-10.9c-0.1,-7.5 -3.8,-11.2 -11.1,-11.2Zm0,18.4c-4.9,0 -7.3,-2.5 -7.4,-7.4c0,-5 2.5,-7.4 7.4,-7.4c5,0 7.4,2.4 7.4,7.4c0,4.9 -2.5,7.4 -7.4,7.4Z" style="fill:#54b27d;fill-rule:nonzero;"/><g><path d="M106.165,45l-2.232,0l0,-12.48l2.232,0l0,12.48Zm-1.128,-14.736c-0.4,0 -0.74,-0.132 -1.02,-0.396c-0.28,-0.264 -0.42,-0.62 -0.42,-1.068c0,-0.448 0.14,-0.804 0.42,-1.068c0.28,-0.264 0.62,-0.396 1.02,-0.396c0.4,0 0.74,0.132 1.02,0.396c0.28,0.264 0.42,0.62 0.42,1.068c0,0.448 -0.14,0.804 -0.42,1.068c-0.28,0.264 -0.62,0.396 -1.02,0.396Z" style="fill:#4a4949;fill-rule:nonzero;"/><path d="M110.005,32.88c0.512,-0.128 1.192,-0.264 2.04,-0.408c0.848,-0.144 1.824,-0.216 2.928,-0.216c0.992,0 1.816,0.14 2.472,0.42c0.656,0.28 1.18,0.672 1.572,1.176c0.392,0.504 0.668,1.108 0.828,1.812c0.16,0.704 0.24,1.48 0.24,2.328l0,7.008l-2.232,0l0,-6.528c0,-0.768 -0.052,-1.424 -0.156,-1.968c-0.104,-0.544 -0.276,-0.984 -0.516,-1.32c-0.24,-0.336 -0.56,-0.58 -0.96,-0.732c-0.4,-0.152 -0.896,-0.228 -1.488,-0.228c-0.24,0 -0.488,0.008 -0.744,0.024c-0.256,0.016 -0.5,0.036 -0.732,0.06c-0.232,0.024 -0.44,0.052 -0.624,0.084c-0.184,0.032 -0.316,0.056 -0.396,0.072l0,10.536l-2.232,0l0,-12.12Z" style="fill:#4a4949;fill-rule:nonzero;"/><path d="M125.869,32.52l4.728,0l0,1.872l-4.728,0l0,5.76c0,0.624 0.048,1.14 0.144,1.548c0.096,0.408 0.24,0.728 0.432,0.96c0.192,0.232 0.432,0.396 0.72,0.492c0.288,0.096 0.624,0.144 1.008,0.144c0.672,0 1.212,-0.076 1.62,-0.228c0.408,-0.152 0.692,-0.26 0.852,-0.324l0.432,1.848c-0.224,0.112 -0.616,0.252 -1.176,0.42c-0.56,0.168 -1.2,0.252 -1.92,0.252c-0.848,0 -1.548,-0.108 -2.1,-0.324c-0.552,-0.216 -0.996,-0.54 -1.332,-0.972c-0.336,-0.432 -0.572,-0.964 -0.708,-1.596c-0.136,-0.632 -0.204,-1.364 -0.204,-2.196l0,-11.136l2.232,-0.384l0,3.864Z" style="fill:#4a4949;fill-rule:nonzero;"/><path d="M138.037,32.256c0.192,0 0.412,0.012 0.66,0.036c0.248,0.024 0.492,0.056 0.732,0.096c0.24,0.04 0.46,0.08 0.66,0.12c0.2,0.04 0.348,0.076 0.444,0.108l-0.384,1.944c-0.176,-0.064 -0.468,-0.14 -0.876,-0.228c-0.408,-0.088 -0.932,-0.132 -1.572,-0.132c-0.416,0 -0.828,0.044 -1.236,0.132c-0.408,0.088 -0.676,0.148 -0.804,0.18l0,10.488l-2.232,0l0,-11.952c0.528,-0.192 1.184,-0.372 1.968,-0.54c0.784,-0.168 1.664,-0.252 2.64,-0.252Z" style="fill:#4a4949;fill-rule:nonzero;"/><path d="M146.917,43.392c0.528,0 0.996,-0.012 1.404,-0.036c0.408,-0.024 0.748,-0.068 1.02,-0.132l0,-3.72c-0.16,-0.08 -0.42,-0.148 -0.78,-0.204c-0.36,-0.056 -0.796,-0.084 -1.308,-0.084c-0.336,0 -0.692,0.024 -1.068,0.072c-0.376,0.048 -0.72,0.148 -1.032,0.3c-0.312,0.152 -0.572,0.36 -0.78,0.624c-0.208,0.264 -0.312,0.612 -0.312,1.044c0,0.8 0.256,1.356 0.768,1.668c0.512,0.312 1.208,0.468 2.088,0.468Zm-0.192,-11.184c0.896,0 1.652,0.116 2.268,0.348c0.616,0.232 1.112,0.56 1.488,0.984c0.376,0.424 0.644,0.928 0.804,1.512c0.16,0.584 0.24,1.228 0.24,1.932l0,7.8c-0.192,0.032 -0.46,0.076 -0.804,0.132c-0.344,0.056 -0.732,0.108 -1.164,0.156c-0.432,0.048 -0.9,0.092 -1.404,0.132c-0.504,0.04 -1.004,0.06 -1.5,0.06c-0.704,0 -1.352,-0.072 -1.944,-0.216c-0.592,-0.144 -1.104,-0.372 -1.536,-0.684c-0.432,-0.312 -0.768,-0.724 -1.008,-1.236c-0.24,-0.512 -0.36,-1.128 -0.36,-1.848c0,-0.688 0.14,-1.28 0.42,-1.776c0.28,-0.496 0.66,-0.896 1.14,-1.2c0.48,-0.304 1.04,-0.528 1.68,-0.672c0.64,-0.144 1.312,-0.216 2.016,-0.216c0.224,0 0.456,0.012 0.696,0.036c0.24,0.024 0.468,0.056 0.684,0.096c0.216,0.04 0.404,0.076 0.564,0.108c0.16,0.032 0.272,0.056 0.336,0.072l0,-0.624c0,-0.368 -0.04,-0.732 -0.12,-1.092c-0.08,-0.36 -0.224,-0.68 -0.432,-0.96c-0.208,-0.28 -0.492,-0.504 -0.852,-0.672c-0.36,-0.168 -0.828,-0.252 -1.404,-0.252c-0.736,0 -1.38,0.052 -1.932,0.156c-0.552,0.104 -0.964,0.212 -1.236,0.324l-0.264,-1.848c0.288,-0.128 0.768,-0.252 1.44,-0.372c0.672,-0.12 1.4,-0.18 2.184,-0.18Z" style="fill:#4a4949;fill-rule:nonzero;"/><path d="M155.221,32.88c0.512,-0.128 1.192,-0.264 2.04,-0.408c0.848,-0.144 1.824,-0.216 2.928,-0.216c0.992,0 1.816,0.14 2.472,0.42c0.656,0.28 1.18,0.672 1.572,1.176c0.392,0.504 0.668,1.108 0.828,1.812c0.16,0.704 0.24,1.48 0.24,2.328l0,7.008l-2.232,0l0,-6.528c0,-0.768 -0.052,-1.424 -0.156,-1.968c-0.104,-0.544 -0.276,-0.984 -0.516,-1.32c-0.24,-0.336 -0.56,-0.58 -0.96,-0.732c-0.4,-0.152 -0.896,-0.228 -1.488,-0.228c-0.24,0 -0.488,0.008 -0.744,0.024c-0.256,0.016 -0.5,0.036 -0.732,0.06c-0.232,0.024 -0.44,0.052 -0.624,0.084c-0.184,0.032 -0.316,0.056 -0.396,0.072l0,10.536l-2.232,0l0,-12.12Z" style="fill:#4a4949;fill-rule:nonzero;"/><path d="M168.301,38.784c0,-1.104 0.16,-2.068 0.48,-2.892c0.32,-0.824 0.744,-1.508 1.272,-2.052c0.528,-0.544 1.136,-0.952 1.824,-1.224c0.688,-0.272 1.392,-0.408 2.112,-0.408c1.68,0 2.968,0.524 3.864,1.572c0.896,1.048 1.344,2.644 1.344,4.788c0,0.096 0,0.22 0,0.372c0,0.152 -0.008,0.292 -0.024,0.42l-8.544,0c0.096,1.296 0.472,2.28 1.128,2.952c0.656,0.672 1.68,1.008 3.072,1.008c0.784,0 1.444,-0.068 1.98,-0.204c0.536,-0.136 0.94,-0.268 1.212,-0.396l0.312,1.872c-0.272,0.144 -0.748,0.296 -1.428,0.456c-0.68,0.16 -1.452,0.24 -2.316,0.24c-1.088,0 -2.028,-0.164 -2.82,-0.492c-0.792,-0.328 -1.444,-0.78 -1.956,-1.356c-0.512,-0.576 -0.892,-1.26 -1.14,-2.052c-0.248,-0.792 -0.372,-1.66 -0.372,-2.604Zm8.568,-1.224c0.016,-1.008 -0.236,-1.836 -0.756,-2.484c-0.52,-0.648 -1.236,-0.972 -2.148,-0.972c-0.512,0 -0.964,0.1 -1.356,0.3c-0.392,0.2 -0.724,0.46 -0.996,0.78c-0.272,0.32 -0.484,0.688 -0.636,1.104c-0.152,0.416 -0.252,0.84 -0.3,1.272l6.192,0Z" style="fill:#4a4949;fill-rule:nonzero;"/><path d="M184.501,32.52l4.728,0l0,1.872l-4.728,0l0,5.76c0,0.624 0.048,1.14 0.144,1.548c0.096,0.408 0.24,0.728 0.432,0.96c0.192,0.232 0.432,0.396 0.72,0.492c0.288,0.096 0.624,0.144 1.008,0.144c0.672,0 1.212,-0.076 1.62,-0.228c0.408,-0.152 0.692,-0.26 0.852,-0.324l0.432,1.848c-0.224,0.112 -0.616,0.252 -1.176,0.42c-0.56,0.168 -1.2,0.252 -1.92,0.252c-0.848,0 -1.548,-0.108 -2.1,-0.324c-0.552,-0.216 -0.996,-0.54 -1.332,-0.972c-0.336,-0.432 -0.572,-0.964 -0.708,-1.596c-0.136,-0.632 -0.204,-1.364 -0.204,-2.196l0,-11.136l2.232,-0.384l0,3.864Z" style="fill:#4a4949;fill-rule:nonzero;"/></g></svg>